<svg xmlns="http://www.w3.org/2000/svg" version="1.1" id="Layer_1" xmlns:xlink="http://www.w3.org/1999/xlink" x="0px" y="0px" width="100%" viewBox="0 0 2825 1703" enable-background="new 0 0 2825 1703" xml:space="preserve">
	<rect width="100%" height="100%" fill="transparent"></rect>
  <path fill="#4B4B89" opacity="1.000000" stroke="none" d="
  M2272.653320,1705.550537 
	  C2251.958252,1706.000000 2231.916260,1706.000000 2210.937256,1706.000000 
	  C2206.078125,1703.893677 2201.851318,1705.508789 2197.019775,1704.999756 
	  C2138.901367,1705.334595 2084.531250,1691.544922 2031.873291,1670.031738 
	  C1961.584961,1641.316040 1898.523193,1600.819214 1840.361816,1552.276489 
	  C1812.173584,1528.749878 1785.895508,1503.176270 1761.061157,1476.317505 
	  C1722.395264,1434.499634 1675.115112,1408.724976 1620.450928,1395.159180 
	  C1571.641968,1383.046265 1522.511841,1372.520508 1472.917358,1364.097046 
	  C1429.729614,1356.761841 1386.765015,1358.026123 1343.975098,1366.522949 
	  C1289.122925,1377.414673 1233.984619,1387.125366 1180.660034,1404.616211 
	  C1142.604858,1417.098511 1109.700195,1437.703491 1081.477539,1466.117798 
	  C1047.932373,1499.890625 1015.108093,1534.468750 977.614136,1564.041260 
	  C914.974854,1613.446289 847.531677,1654.481201 771.804504,1680.809326 
	  C728.303223,1695.933350 683.665771,1705.045532 636.626038,1704.999756 
	  C631.660278,1705.048340 627.474243,1704.890991 622.645630,1705.552246 
	  C601.958191,1706.000000 581.916443,1706.000000 560.937317,1706.000000 
	  C556.036865,1703.891235 551.771057,1705.510376 546.888550,1704.999756 
	  C486.649902,1705.310669 430.722046,1690.193115 376.618317,1666.703369 
	  C328.595154,1645.853516 284.875458,1618.065918 245.125946,1584.258057 
	  C193.171951,1540.069946 150.906677,1487.609131 116.964386,1428.535889 
	  C60.779408,1330.751465 29.434155,1224.746948 12.861657,1113.760864 
	  C6.800162,1073.167114 4.500855,1032.433960 3.995152,991.505066 
	  C3.966405,989.178467 4.103464,986.836731 3.232394,983.780029 
	  C2.878785,976.456116 3.156064,969.913574 2.446432,962.687683 
	  C2.000000,927.291565 2.000000,892.583069 2.000000,856.937317 
	  C4.065795,850.264221 2.517691,844.321655 3.005834,837.700317 
	  C4.887726,818.243408 4.855464,799.475403 5.754596,780.767761 
	  C7.376719,747.017334 13.330881,713.947144 19.899992,681.001038 
	  C32.373680,618.441711 50.729610,557.542542 75.039047,498.554291 
	  C109.653648,414.559906 154.920425,336.888977 213.091583,266.820404 
	  C273.082581,194.559784 343.378113,134.571655 425.094360,88.382370 
	  C497.353760,47.538483 574.444092,19.572445 656.690735,7.030110 
	  C677.828491,3.806678 699.383484,3.731706 721.582947,3.000026 
	  C727.142700,2.949970 731.914917,3.109714 737.342285,2.449804 
	  C762.708435,2.000000 787.416931,2.000000 813.062683,2.000000 
	  C818.510559,4.116475 823.289062,2.505051 828.697998,3.000026 
	  C886.043213,2.765707 940.977112,12.868752 995.010620,28.887413 
	  C1048.813721,44.837769 1100.699585,65.556259 1150.726318,90.955032 
	  C1219.288696,125.764473 1282.863037,168.283142 1343.266357,215.684845 
	  C1351.398193,222.066422 1359.653687,228.255325 1368.489502,233.626892 
	  C1401.864258,253.916260 1434.818970,252.507202 1467.124390,231.256378 
	  C1488.566772,217.151474 1508.082153,200.418625 1528.812134,185.326309 
	  C1608.667603,127.188187 1693.679565,78.688408 1787.012573,45.355167 
	  C1835.779663,27.938282 1885.430298,14.132148 1936.743408,6.985075 
	  C1957.948853,4.031512 1979.443970,3.670086 2001.643677,3.000026 
	  C2007.181641,2.949407 2011.936890,3.110976 2017.344727,2.449195 
	  C2042.708496,2.000000 2067.416992,2.000000 2093.062744,2.000000 
	  C2098.528564,4.116341 2103.323975,2.505052 2108.755615,3.000026 
	  C2175.889648,2.389198 2239.333740,17.093157 2301.228027,39.650150 
	  C2368.652832,64.222801 2430.776855,98.595558 2488.147705,141.638062 
	  C2518.812256,164.644302 2547.799072,189.689484 2574.450195,217.158173 
	  C2622.614258,266.799805 2664.307861,321.509613 2699.143555,381.377319 
	  C2742.277832,455.506744 2774.540771,534.105103 2796.829346,616.877808 
	  C2808.530273,660.331787 2818.328857,704.199402 2823.034912,748.971497 
	  C2826.034424,777.508362 2827.258057,806.241150 2826.999512,835.779968 
	  C2827.052979,841.935669 2826.883789,847.298706 2827.551270,853.329590 
	  C2828.000000,889.375122 2828.000000,924.750244 2828.000000,961.062683 
	  C2825.779053,968.395935 2827.568848,974.997864 2826.999512,982.286621 
	  C2828.589844,1088.810059 2810.841064,1191.488525 2776.879883,1291.317139 
	  C2749.986572,1370.370117 2712.548584,1444.030029 2659.650391,1509.257935 
	  C2614.894287,1564.445679 2561.929443,1609.836304 2499.838623,1644.573608 
	  C2452.643066,1670.977783 2402.520996,1689.390991 2349.577637,1699.971924 
	  C2329.191406,1704.046265 2308.286865,1703.779053 2286.786621,1704.999756 
	  C2281.764893,1705.046753 2277.534424,1704.894531 2272.653320,1705.550537 
  z"></path>
  
  
  
  
  
  <path fill="#C2C2D7" opacity="1.000000" stroke="none" d="
  M4.366738,982.894531 
	  C3.891647,983.845642 3.516178,983.906677 2.570355,983.983826 
	  C2.000000,977.277405 2.000000,970.554871 2.000000,962.916138 
	  C5.575918,963.588623 4.356450,966.870911 4.483642,969.532715 
	  C4.681824,973.680176 4.491846,977.846191 4.366738,982.894531 
  z"></path>
  <path fill="#C2C2D7" opacity="1.000000" stroke="none" d="
  M2828.000000,983.083862 
	  C2828.000000,984.000000 2827.182129,984.248657 2826.756836,984.203491 
	  C2825.990479,977.079895 2825.516357,969.999939 2827.296875,962.469543 
	  C2828.000000,968.722595 2828.000000,975.445129 2828.000000,983.083862 
  z"></path>
  <path fill="#BFBCD3" opacity="1.000000" stroke="none" d="
  M2.000000,836.908203 
	  C2.355512,835.979553 2.711023,835.959045 3.595488,836.013062 
	  C4.507900,842.370789 5.717261,848.694519 2.603118,855.418030 
	  C2.000000,849.938782 2.000000,843.877625 2.000000,836.908203 
  z"></path>
  <path fill="#C2C2D7" opacity="1.000000" stroke="none" d="
  M2826.273682,836.683594 
	  C2826.424072,835.805298 2827.250244,835.593262 2827.625000,835.796631 
	  C2828.000000,841.400024 2828.000000,846.800049 2828.000000,853.100037 
	  C2823.887451,848.918701 2826.889893,843.025146 2826.273682,836.683594 
  z"></path>
  <path fill="#BEBED5" opacity="1.000000" stroke="none" d="
  M2109.111816,2.000000 
	  C2110.000000,2.000000 2110.108887,2.837458 2110.136230,3.258816 
	  C2105.124268,4.027073 2100.078369,4.581870 2094.545410,2.610130 
	  C2098.741211,2.000000 2103.482178,2.000000 2109.111816,2.000000 
  z"></path>
  <path fill="#BEBED5" opacity="1.000000" stroke="none" d="
  M2002.695312,3.802003 
	  C2001.840332,3.679558 2001.892700,2.837164 2001.946289,2.418582 
	  C2006.741089,2.000000 2011.482300,2.000000 2017.111694,2.000000 
	  C2013.589600,5.691298 2008.385254,3.421464 2002.695312,3.802003 
  z"></path>
  <path fill="#BEBED5" opacity="1.000000" stroke="none" d="
  M829.111694,2.000000 
	  C830.000000,2.000000 830.107605,2.837293 830.134033,3.258533 
	  C825.122070,4.027537 820.077393,4.581675 814.545532,2.610095 
	  C818.741150,2.000000 823.482239,2.000000 829.111694,2.000000 
  z"></path>
  <path fill="#BEBED5" opacity="1.000000" stroke="none" d="
  M722.695068,3.801824 
	  C721.840149,3.679271 721.892334,2.836999 721.946167,2.418499 
	  C726.741150,2.000000 731.482239,2.000000 737.111694,2.000000 
	  C733.589539,5.691267 728.385132,3.421521 722.695068,3.801824 
  z"></path>
  <path fill="#BEBED4" opacity="1.000000" stroke="none" d="
  M546.875000,1706.000000 
	  C546.000000,1706.000000 545.914124,1705.104126 545.901550,1704.654297 
	  C550.254333,1704.078613 554.645447,1703.375122 559.471191,1705.393188 
	  C555.916687,1706.000000 551.833313,1706.000000 546.875000,1706.000000 
  z"></path>
  <path fill="#BEBED4" opacity="1.000000" stroke="none" d="
  M635.278076,1704.123779 
	  C636.110962,1704.205811 636.086792,1705.104858 636.043396,1705.552490 
	  C631.916687,1706.000000 627.833313,1706.000000 622.875000,1706.000000 
	  C625.678894,1702.363159 630.283142,1704.607788 635.278076,1704.123779 
  z"></path>
  <path fill="#BEBED4" opacity="1.000000" stroke="none" d="
  M2196.875000,1706.000000 
	  C2196.000000,1706.000000 2195.912842,1705.104248 2195.899658,1704.654541 
	  C2200.252686,1704.078857 2204.644531,1703.375000 2209.471191,1705.393311 
	  C2205.916748,1706.000000 2201.833252,1706.000000 2196.875000,1706.000000 
  z"></path>
  <path fill="#BEBED4" opacity="1.000000" stroke="none" d="
  M2285.279297,1704.122803 
	  C2286.112305,1704.204102 2286.085693,1705.103882 2286.042969,1705.552002 
	  C2281.916748,1706.000000 2277.833252,1706.000000 2272.875000,1706.000000 
	  C2275.679199,1702.363159 2280.283691,1704.607910 2285.279297,1704.122803 
  z"></path>
  <path fill="#FEFEFF" opacity="1.000000" stroke="none" d="
  M1927.668457,1558.306396 
	  C1895.700562,1536.451050 1866.458984,1512.433838 1838.872314,1486.262573 
	  C1820.254639,1468.599976 1801.881226,1450.687988 1784.183960,1432.150635 
	  C1747.282471,1393.497192 1702.291626,1368.905762 1651.535889,1354.226074 
	  C1590.448730,1336.558228 1528.245972,1323.751343 1465.371826,1314.557617 
	  C1427.668091,1309.044434 1389.690430,1310.167725 1352.132568,1316.580200 
	  C1294.447754,1326.429199 1237.005005,1337.599854 1180.778809,1354.139282 
	  C1136.514282,1367.160034 1095.670166,1386.821411 1061.724731,1418.732422 
	  C1043.762085,1435.618408 1026.747192,1453.511108 1009.271240,1470.915894 
	  C957.540710,1522.435913 899.771240,1565.726074 835.367065,1600.341064 
	  C777.525024,1631.429077 716.215332,1651.098999 651.169373,1659.261108 
	  C629.396912,1661.993042 607.461914,1663.733887 585.533325,1663.199341 
	  C515.924988,1661.502441 449.055420,1647.479004 385.683533,1617.863647 
	  C328.566040,1591.171265 278.798218,1554.414185 235.673218,1508.686768 
	  C201.259048,1472.195679 172.835312,1431.302856 148.963791,1387.187256 
	  C112.583847,1319.955566 88.438316,1248.354736 72.306770,1173.871582 
	  C63.866478,1134.900635 57.685192,1095.569946 53.617928,1055.891968 
	  C50.773869,1028.146851 48.760529,1000.374939 47.433857,972.503906 
	  C46.246380,947.557007 45.555737,922.633240 45.702023,897.679443 
	  C46.051155,838.125061 51.264900,779.032776 61.426834,720.299866 
	  C69.944077,671.072754 81.912392,622.779541 97.683350,575.434448 
	  C122.730988,500.240143 156.786179,429.350861 201.016296,363.522095 
	  C224.978088,327.859192 251.717606,294.384796 281.106201,262.933624 
	  C333.377869,206.993317 392.961029,160.546234 460.142914,124.063202 
	  C528.246399,87.079681 600.740173,62.682690 677.559998,51.615433 
	  C701.242737,48.203518 725.040710,46.321838 748.977661,45.160023 
	  C822.061584,41.612797 893.554077,51.133930 963.950867,69.954803 
	  C1057.716309,95.023376 1143.953857,136.664154 1225.045410,189.533966 
	  C1259.370972,211.913422 1292.242065,236.271591 1324.373413,261.638092 
	  C1346.831055,279.367645 1372.197754,290.436554 1400.201294,295.153595 
	  C1423.549561,299.086487 1445.733643,293.391907 1467.487061,285.094574 
	  C1489.358765,276.752258 1507.066895,262.117889 1525.167969,248.030487 
	  C1588.144653,199.018219 1654.960693,156.153229 1727.161621,121.937248 
	  C1781.441406,96.214073 1837.791382,76.260551 1896.327759,62.780552 
	  C1928.723755,55.320278 1961.510864,50.021564 1994.704102,47.230671 
	  C2012.924072,45.698746 2031.168335,44.355824 2049.407471,44.262207 
	  C2126.162842,43.868248 2201.084717,55.386635 2273.674316,80.712814 
	  C2352.751221,108.302422 2424.010010,149.655487 2488.169189,203.379013 
	  C2539.760010,246.578552 2584.119629,296.340729 2622.623047,351.427490 
	  C2672.174316,422.320251 2709.414551,499.324097 2736.304199,581.388855 
	  C2755.066650,638.650391 2768.352051,697.205261 2776.329102,756.953125 
	  C2780.196045,785.915344 2782.652588,814.976318 2784.569092,844.145630 
	  C2787.149658,883.422241 2787.057129,922.703369 2785.403809,961.899048 
	  C2782.098389,1040.270996 2773.447266,1118.034668 2754.980225,1194.519165 
	  C2739.928711,1256.857910 2719.258301,1317.094604 2689.932617,1374.193848 
	  C2666.271484,1420.264893 2637.678711,1462.982056 2602.826660,1501.481567 
	  C2561.254883,1547.404175 2513.129883,1584.732056 2457.756592,1612.384521 
	  C2405.187988,1638.636475 2349.529297,1654.568604 2290.925537,1660.273804 
	  C2275.693359,1661.756836 2260.414307,1663.113525 2245.207031,1663.106689 
	  C2181.426025,1663.077881 2119.510986,1652.092651 2059.775391,1629.394043 
	  C2019.472046,1614.079346 1981.893921,1593.532104 1945.701172,1570.303833 
	  C1939.828491,1566.534668 1934.090576,1562.555420 1927.668457,1558.306396 
  z"></path>
  <path fill="#4A4A88" opacity="1.000000" stroke="none" d="
  M2240.263184,277.747986 
	  C2200.539795,260.606110 2159.953857,249.646927 2117.827637,243.862213 
	  C2089.674805,239.996384 2061.410889,239.031479 2033.191895,240.348938 
	  C1989.887085,242.370743 1947.399780,250.145081 1905.815796,262.546967 
	  C1828.851685,285.500458 1758.762451,322.373901 1692.722900,367.543579 
	  C1687.964844,370.797974 1687.614868,374.587891 1687.622803,379.375549 
	  C1687.691162,420.371613 1687.681030,461.367889 1687.648438,502.364044 
	  C1687.639893,513.050781 1689.247437,513.369019 1676.940430,513.360535 
	  C1627.944946,513.327026 1578.949585,513.346985 1529.954102,513.345459 
	  C1528.287720,513.345398 1526.614746,513.228333 1524.956177,513.337463 
	  C1521.090088,513.592041 1519.466797,511.787476 1519.670288,508.003571 
	  C1519.777466,506.009888 1519.671631,504.005066 1519.671631,502.005280 
	  C1519.670654,433.678284 1519.807739,365.350647 1519.478516,297.025238 
	  C1519.441895,289.421692 1522.098511,285.176727 1527.923706,280.668762 
	  C1570.343750,247.840942 1613.781372,216.534485 1659.986328,189.180862 
	  C1732.259277,146.394760 1808.514893,113.158104 1890.245483,93.068550 
	  C1925.474365,84.409241 1961.118530,78.225197 1997.317749,75.233093 
	  C2018.859863,73.452477 2040.440186,71.783920 2062.016113,72.259300 
	  C2124.083984,73.626816 2185.076172,82.160393 2244.583740,100.605675 
	  C2330.696289,127.297539 2407.452637,170.769852 2475.763916,229.200607 
	  C2524.293701,270.710876 2566.177979,318.311737 2602.394775,370.958496 
	  C2623.558594,401.723846 2642.665771,433.700928 2659.332275,467.049316 
	  C2692.915283,534.247498 2717.569824,604.674927 2733.843262,678.039062 
	  C2743.344238,720.871948 2750.005127,764.126587 2753.941895,807.814758 
	  C2757.226074,844.261719 2758.814453,880.788940 2758.236816,917.368286 
	  C2757.811768,944.294922 2757.378418,971.267761 2755.472656,998.115234 
	  C2751.192139,1058.420288 2743.849365,1118.350342 2730.292969,1177.389160 
	  C2717.379639,1233.626953 2699.937012,1288.299683 2675.401367,1340.646118 
	  C2655.259521,1383.619141 2630.907959,1423.961670 2601.125488,1460.910034 
	  C2559.894043,1512.061890 2510.612549,1553.554932 2452.142822,1583.913696 
	  C2400.747314,1610.599609 2346.264893,1626.461670 2288.648193,1632.386841 
	  C2272.734375,1634.023438 2256.732178,1635.023315 2240.937012,1634.917847 
	  C2209.746826,1634.709351 2178.618896,1631.979126 2147.865234,1625.751343 
	  C2104.899902,1617.050415 2063.597656,1603.457275 2024.586060,1583.611206 
	  C1968.288696,1554.971191 1916.300171,1519.904053 1869.694702,1477.013550 
	  C1849.110352,1458.070190 1829.878418,1437.797974 1809.950806,1418.212158 
	  C1790.239014,1398.838135 1769.886963,1380.272949 1746.266602,1365.533569 
	  C1719.225342,1348.659546 1689.959839,1337.091919 1659.730713,1327.589600 
	  C1618.732666,1314.702393 1576.510620,1307.024048 1534.580566,1298.109497 
	  C1519.700806,1294.946045 1519.670898,1295.084717 1519.670898,1280.172485 
	  C1519.670654,1158.517090 1519.653442,1036.861694 1519.695557,915.206360 
	  C1519.700073,902.051270 1518.033325,903.363770 1531.310547,903.359070 
	  C1637.967285,903.321350 1744.624146,903.329163 1851.280884,903.350403 
	  C1863.353882,903.352783 1862.310059,902.381165 1862.316772,913.797913 
	  C1862.346069,962.793396 1862.329102,1011.788818 1862.329102,1060.784302 
	  C1862.329102,1061.450928 1862.338257,1062.117554 1862.326782,1062.784058 
	  C1862.181030,1071.231812 1862.180298,1071.324707 1853.266724,1071.330566 
	  C1803.604614,1071.363037 1753.942505,1071.295044 1704.280762,1071.423828 
	  C1699.079102,1071.437378 1692.565430,1069.008911 1688.958130,1072.806641 
	  C1685.411621,1076.540405 1687.775635,1082.999023 1687.732178,1088.236328 
	  C1687.560791,1108.899658 1687.637817,1129.565186 1687.670532,1150.229980 
	  C1687.691284,1163.322388 1687.188477,1160.650757 1697.460205,1163.723022 
	  C1734.797852,1174.890747 1771.223145,1188.364014 1805.871460,1206.357056 
	  C1840.009155,1224.084839 1871.274780,1245.898315 1899.705811,1271.843750 
	  C1920.888672,1291.174683 1940.634888,1311.946655 1960.912109,1332.181885 
	  C2002.473877,1373.657593 2049.000000,1408.292480 2101.746338,1434.176147 
	  C2139.435547,1452.670898 2179.331787,1463.206665 2221.381348,1466.278564 
	  C2274.465820,1470.156372 2324.625732,1460.333130 2371.951416,1436.346558 
	  C2412.070557,1416.012695 2445.187744,1387.147949 2472.805176,1351.740967 
	  C2509.549561,1304.633301 2534.097412,1251.399292 2551.728760,1194.755493 
	  C2566.970947,1145.787231 2576.776611,1095.664062 2582.448242,1044.690674 
	  C2585.165527,1020.269470 2586.985596,995.812683 2588.561035,971.291138 
	  C2591.019287,933.024292 2591.266113,894.745972 2589.413086,856.547119 
	  C2587.013916,807.101013 2580.359863,758.099976 2569.241943,709.758179 
	  C2554.783447,646.889221 2533.392334,586.557373 2503.100342,529.565552 
	  C2475.463623,477.569000 2441.700195,430.008209 2400.048828,388.061096 
	  C2365.317627,353.083588 2326.865723,323.216370 2283.893799,299.162689 
	  C2269.970215,291.368988 2255.630127,284.358521 2240.263184,277.747986 
  z"></path>
  <path fill="#4A4A88" opacity="1.000000" stroke="none" d="
  M1046.425049,311.698364 
	  C996.303589,285.493744 944.609497,265.568329 890.120361,253.198975 
	  C863.197083,247.087219 835.982361,243.076309 808.378845,241.113113 
	  C789.387024,239.762390 770.385498,239.430435 751.508606,240.381256 
	  C712.557373,242.343201 674.264038,248.976181 636.993469,260.861633 
	  C569.089050,282.516083 508.947754,317.578491 455.958649,365.164734 
	  C401.558075,414.018494 358.716248,471.602386 325.383911,536.505127 
	  C289.534912,606.308167 266.228424,680.139465 253.572556,757.480469 
	  C248.743347,786.992188 245.557037,816.626770 243.433090,846.471375 
	  C240.732605,884.417114 240.841003,922.369751 242.578735,960.231445 
	  C246.210739,1039.365601 256.224243,1117.644409 279.916840,1193.626831 
	  C299.100739,1255.149902 325.882080,1312.801270 367.920868,1362.386475 
	  C413.906891,1416.627563 471.388824,1451.339966 541.908569,1463.314331 
	  C590.383606,1471.545288 637.881042,1466.664185 684.694885,1452.304565 
	  C718.089783,1442.060913 748.461975,1425.771973 777.863525,1407.319946 
	  C814.150208,1384.546997 846.360962,1356.865356 876.607666,1326.678711 
	  C899.929016,1303.403564 922.469116,1279.324829 947.894531,1258.196289 
	  C989.572021,1223.562134 1036.452515,1198.290161 1087.069458,1179.555786 
	  C1103.592163,1173.440430 1120.229858,1167.634521 1137.267822,1163.145142 
	  C1142.777710,1161.693481 1144.542725,1159.122070 1144.470703,1153.436768 
	  C1144.158325,1128.776733 1144.374512,1104.110229 1144.314941,1079.446289 
	  C1144.295654,1071.495850 1144.178467,1071.375610 1135.928467,1071.369141 
	  C1084.600464,1071.329224 1033.272461,1071.375854 981.944519,1071.327881 
	  C968.277588,1071.315063 969.701965,1072.788574 969.688477,1058.996216 
	  C969.641846,1011.334534 969.670593,963.672791 969.670715,916.011108 
	  C969.670715,914.677917 969.655762,913.344543 969.674072,912.011597 
	  C969.791260,903.461243 969.793640,903.361328 978.505737,903.355957 
	  C1032.166748,903.322754 1085.827881,903.338074 1139.488892,903.337830 
	  C1193.483276,903.337646 1247.477539,903.322449 1301.471924,903.350342 
	  C1313.465698,903.356506 1312.313232,902.446228 1312.315308,913.988831 
	  C1312.337524,1037.642578 1312.329224,1161.296265 1312.328857,1284.950073 
	  C1312.328857,1286.283203 1312.207642,1287.628540 1312.343384,1288.947388 
	  C1312.802002,1293.404663 1310.999390,1295.312988 1306.411743,1296.209106 
	  C1287.497803,1299.903931 1268.675171,1304.064941 1249.816650,1308.044067 
	  C1205.177612,1317.463257 1161.040039,1328.533691 1119.289551,1347.510986 
	  C1089.943970,1360.849487 1063.864746,1378.927979 1040.235474,1400.828369 
	  C1015.800049,1423.476074 993.557678,1448.324951 969.164673,1470.988892 
	  C929.030518,1508.277710 884.988953,1540.188843 837.425903,1567.447754 
	  C793.816467,1592.440918 747.930115,1611.333984 698.904114,1622.443726 
	  C667.711853,1629.512329 636.187988,1633.339233 604.116760,1634.338501 
	  C537.594604,1636.411377 473.701355,1624.959351 412.462219,1599.302612 
	  C363.854828,1578.937744 320.309021,1550.507446 281.455353,1514.753540 
	  C228.021942,1465.582886 188.044708,1406.937866 157.133926,1341.606934 
	  C128.506287,1281.101318 109.473732,1217.574219 96.362289,1152.145630 
	  C88.462532,1112.724365 83.003029,1072.945312 79.576561,1032.868896 
	  C77.766006,1011.692322 76.563759,990.504944 75.442574,969.284790 
	  C74.107292,944.012512 73.423058,918.749939 73.754700,893.478516 
	  C74.557617,832.295044 80.147591,771.578003 91.394318,711.351257 
	  C104.630363,640.471924 125.438065,571.976074 154.358963,505.973358 
	  C171.069962,467.835907 190.638062,431.160614 212.968231,395.990082 
	  C237.633377,357.141907 265.303802,320.537476 296.561279,286.786896 
	  C346.892151,232.441650 404.066071,186.659134 469.090454,150.869034 
	  C532.919495,115.736824 600.810242,92.334084 672.669067,80.688057 
	  C698.890259,76.438438 725.312195,73.381958 751.978516,73.283707 
	  C760.272766,73.253151 768.504272,71.902138 776.853699,72.051231 
	  C845.701599,73.280624 913.156799,83.251587 979.125549,103.252472 
	  C1072.048218,131.425476 1157.007324,175.558762 1236.554688,230.719803 
	  C1260.635376,247.418228 1283.660156,265.511200 1307.122681,283.028717 
	  C1311.136108,286.025177 1312.402100,289.176270 1312.395508,293.882965 
	  C1312.298218,364.208801 1312.343262,434.534821 1312.308105,504.860779 
	  C1312.303955,513.168518 1312.176514,513.313843 1304.190063,513.321289 
	  C1253.861938,513.368225 1203.533936,513.366699 1153.205811,513.325073 
	  C1144.469482,513.317871 1144.365234,513.194519 1144.356812,504.510071 
	  C1144.316772,463.181122 1144.197876,421.851135 1144.480225,380.524048 
	  C1144.525757,373.849762 1142.650269,369.740814 1136.925049,365.929413 
	  C1107.813477,346.549072 1078.244019,327.979980 1046.425049,311.698364 
  z"></path>
  <path fill="#4A4A88" opacity="1.000000" stroke="none" d="
  M518.000549,669.335938 
	  C550.327942,669.335693 581.655273,669.357422 612.982605,669.321716 
	  C622.237915,669.311157 622.316956,669.236938 622.322998,660.062500 
	  C622.352783,615.071106 622.320801,570.079773 622.347717,525.088379 
	  C622.354919,513.101624 621.350342,514.129883 632.895935,514.121704 
	  C668.222473,514.096680 703.549072,514.091003 738.875610,514.128601 
	  C747.545593,514.137817 747.639526,514.226685 747.646362,522.860718 
	  C747.680908,566.852295 747.662781,610.843811 747.663086,654.835388 
	  C747.663086,656.835022 747.635437,658.835144 747.669128,660.834229 
	  C747.810425,669.224976 747.816956,669.297302 756.789429,669.320007 
	  C776.118958,669.368958 795.448608,669.335693 814.778259,669.336060 
	  C840.773254,669.336548 866.768372,669.300354 892.763245,669.357849 
	  C901.529846,669.377258 901.633545,669.485718 901.643860,678.115540 
	  C901.686829,714.108643 901.688599,750.101807 901.640747,786.094849 
	  C901.630249,793.989197 901.508179,794.092041 893.188965,794.098877 
	  C848.530884,794.135559 803.872742,794.116211 759.214661,794.118042 
	  C756.881836,794.118103 754.543884,794.236755 752.217346,794.120178 
	  C748.664795,793.942261 747.574951,795.837891 747.676025,799.019165 
	  C747.750061,801.349243 747.664490,803.684204 747.664368,806.016968 
	  C747.662598,849.341980 747.663757,892.666992 747.661133,935.992004 
	  C747.660950,938.658020 747.595032,941.324585 747.629700,943.989990 
	  C747.668457,946.969666 746.117004,948.145508 743.291016,948.085327 
	  C741.292786,948.042786 739.292358,948.114746 737.292908,948.114868 
	  C702.632874,948.117432 667.972900,948.134583 633.312866,948.107300 
	  C620.848083,948.097534 622.371155,949.016296 622.356506,936.597839 
	  C622.305847,893.606140 622.337097,850.614319 622.336914,807.622559 
	  C622.336853,805.622925 622.375610,803.622375 622.327271,801.623901 
	  C622.149109,794.260071 622.138367,794.143677 614.390564,794.136963 
	  C569.065918,794.097473 523.741211,794.148193 478.416656,794.095703 
	  C466.490662,794.081909 467.707672,795.534485 467.688812,783.483765 
	  C467.633972,748.490601 467.651001,713.497253 467.682770,678.503967 
	  C467.691010,669.429626 467.763184,669.380615 477.009430,669.348755 
	  C490.339630,669.302734 503.670135,669.336365 518.000549,669.335938 
  z"></path>
  <path fill="#4A4A89" opacity="1.000000" stroke="none" d="
  M2199.141357,925.166992 
	  C2175.262451,944.640808 2136.013428,946.020020 2110.066162,923.594116 
	  C2087.934814,904.466492 2079.986816,879.923401 2086.771484,851.892883 
	  C2093.198730,825.339417 2110.676514,807.617126 2137.304199,800.507935 
	  C2176.805176,789.961731 2216.692627,813.861633 2224.833252,853.520325 
	  C2230.621582,881.717224 2222.692383,906.147095 2199.141357,925.166992 
  z"></path>
  <path fill="#4A4A89" opacity="1.000000" stroke="none" d="
  M2341.580322,783.608459 
	  C2315.418701,808.049377 2273.565918,807.796814 2247.748291,786.377930 
	  C2213.480469,757.948303 2213.972412,703.504578 2248.955566,675.792175 
	  C2274.942139,655.206421 2312.890137,656.242554 2336.741211,675.353088 
	  C2365.787109,698.625916 2370.543457,734.459290 2356.922852,763.247986 
	  C2353.339355,770.822144 2348.186523,777.351685 2341.580322,783.608459 
  z"></path>
  <path fill="#4A4A89" opacity="1.000000" stroke="none" d="
  M2087.791016,745.399292 
	  C2080.697510,775.568298 2062.449219,794.575745 2033.223877,800.766663 
	  C1991.536011,809.597595 1955.733032,783.847839 1948.647827,745.759644 
	  C1939.652344,697.402344 1974.645508,665.462402 2008.796143,661.136353 
	  C2053.140381,655.519043 2086.886963,690.778198 2088.695068,723.950195 
	  C2089.079102,730.997742 2088.439941,737.708008 2087.791016,745.399292 
  z"></path>
  <path fill="#4A4A89" opacity="1.000000" stroke="none" d="
  M2088.394531,570.929016 
	  C2106.165771,522.720215 2160.481201,511.585815 2194.565430,534.619568 
	  C2220.020264,551.821655 2230.968018,579.164673 2224.966309,609.205383 
	  C2218.318604,642.479553 2188.739258,661.302429 2165.355225,664.422852 
	  C2123.932129,669.950745 2089.375488,639.093079 2085.346680,604.033630 
	  C2084.052979,592.774719 2085.450439,582.313171 2088.394531,570.929016 
  z"></path>
  </svg>